<svg width="278" height="59" viewBox="0 0 278 59" fill="none" xmlns="http://www.w3.org/2000/svg">
<g clip-path="url(#clip0_479_540)">
<path d="M28.9712 28.8288V58.0857H43.4619V28.8288H57.9425V14.1953H43.4619L28.9712 28.8288Z" fill="#14AE5C"/>
<path d="M0 28.8288V58.0857H14.4907V28.8288H28.9713V14.1953H14.4907L0 28.8288Z" fill="#14AE5C"/>
<path d="M72.4335 28.8291H57.9429V58.086H72.4335V28.8291Z" fill="#14AE5C"/>
<path d="M103.259 11.2747V27.8926H111.482V11.2747H119.714V0.0400391H111.482L103.259 11.2747Z" fill="white"/>
<path d="M86.813 11.2747V27.8926H95.0358V11.2747H103.259V0.0400391H95.0358L86.813 11.2747Z" fill="white"/>
<path d="M127.937 11.2749H119.714V27.8826H127.937V11.2749Z" fill="white"/>
<path d="M143.224 27.8929C135.334 27.6283 130.094 22.7538 130.094 13.931C130.094 5.1081 135.586 0.00976562 143.808 0.00976562C152.031 0.00976562 157.564 4.92492 157.564 13.931C157.564 20.3013 154.692 24.728 149.562 26.5903L155.76 27.669V34.1106H154.581L143.224 27.8929ZM149.895 13.9208C149.895 8.59857 147.456 6.40049 143.808 6.40049C140.161 6.40049 137.762 8.55787 137.762 13.9208C137.762 19.2837 140.201 21.4818 143.808 21.4818C147.416 21.4818 149.895 19.2837 149.895 13.9208Z" fill="white"/>
<path d="M159.71 18.917H167.308C167.308 20.8505 168.527 22.1531 171.621 22.1531C173.757 22.1531 175.128 21.4102 175.128 19.9957C175.128 17.9808 174.13 17.7264 169.666 17.0548C163.438 16.1287 160.264 13.5948 160.264 8.82212C160.264 3.30656 164.507 0.0297852 171.359 0.0297852C177.808 0.0297852 182.121 3.30656 182.121 8.22171H174.604C174.493 6.20681 172.8 5.65728 171.178 5.65728C169.263 5.65728 168.003 6.47139 168.003 7.81466C168.003 9.78887 169.626 9.90081 173.757 10.5317C178.04 11.1627 182.907 12.3533 182.907 19.2121C182.907 24.3105 179.068 27.8925 171.288 27.8925C163.509 27.8925 159.71 24.3206 159.71 18.917Z" fill="white"/>
<path d="M186.555 0.375977H198.617C206.88 0.375977 211.223 5.89154 211.223 13.9715C211.223 22.0515 206.84 27.5264 198.617 27.5264H186.555V0.375977ZM197.317 21.1458C200.743 21.1458 203.585 20.0671 203.585 13.8087C203.585 7.9268 200.894 6.73617 197.317 6.73617H194.032V21.1458H197.317Z" fill="white"/>
<path d="M176.417 37.5909L172.548 33.6425L176.196 29.6636L180.075 33.6425L176.417 37.5909Z" fill="white"/>
<path d="M182.907 37.5909L179.038 33.6425L182.726 29.6636L186.595 33.6425L182.907 37.5909Z" fill="white"/>
<path d="M210.135 45.6403C209.49 44.2156 208.563 43.0657 207.404 42.2618C206.235 41.4273 204.824 41.0203 203.162 41.0203C202.083 41.0203 201.136 41.2034 200.239 41.58C199.322 41.926 198.486 42.445 197.72 43.1268C196.954 43.8086 196.219 44.643 195.503 45.6098C194.798 46.6071 194.123 47.7163 193.417 48.9578C192.984 49.7312 192.621 50.2909 192.309 50.6674C192.037 51.0439 191.754 51.2882 191.513 51.3798C191.331 51.4713 191.11 51.5324 190.868 51.5629H187.149C187.613 50.9422 187.885 50.3214 188.066 49.7007C188.248 48.9883 188.369 48.2149 188.369 47.4313C188.369 46.4035 188.187 45.4164 187.784 44.4802C187.411 43.5135 186.857 42.679 186.121 41.9056C185.386 41.1322 184.459 40.542 183.36 40.0739C182.282 39.6363 180.992 39.4226 179.551 39.4226C178.11 39.4226 176.881 39.6363 175.772 40.0739C174.664 40.542 173.777 41.1322 173.042 41.9056C172.306 42.679 171.752 43.5236 171.379 44.4802C171.006 45.4164 170.825 46.4035 170.825 47.4313C170.825 48.1742 170.915 48.9476 171.097 49.7007C171.278 50.3214 171.56 50.9422 171.983 51.5629H167.933C166.854 51.5629 165.847 51.4408 164.889 51.2169C164.799 51.1864 164.678 51.1559 164.587 51.1253V50.9727C164.617 48.8662 164.285 47.0039 163.569 45.3248C162.864 43.6763 161.755 42.3432 160.284 41.3866C158.783 40.3893 156.878 39.9009 154.51 39.9009C152.666 39.9009 150.852 40.3385 149.068 41.234C147.255 42.099 145.471 43.4015 143.718 45.1417C141.994 46.8513 140.241 48.9883 138.498 51.5629H131.061C130.446 51.5629 124.561 51.5324 124.007 51.4713C123.483 51.4103 123.02 51.3187 122.596 51.2271C122.939 50.3316 123.241 49.3954 123.483 48.4693C123.916 46.8818 124.34 45.1824 124.773 43.3812L117.86 45.8337C117.86 46.3323 117.86 46.9531 117.8 47.6654C117.769 48.4083 117.709 49.1206 117.618 49.8737C117.558 50.586 117.467 51.1457 117.376 51.5833H107.451C106.957 51.5833 106.564 51.5527 106.191 51.4612C105.848 51.4001 105.546 51.2475 105.264 51.0236C105.022 50.8099 104.74 50.4334 104.468 49.9652L97.9883 38.1709L93.4436 44.0935L98.4519 51.5731H86.813L87.861 57.4041H98.4519C99.0666 57.4041 99.7115 57.3431 100.417 57.221C101.122 57.0988 101.767 56.9157 102.321 56.6002C102.442 56.5391 102.563 56.4781 102.664 56.417C102.845 56.5391 103.067 56.6307 103.249 56.7223C103.863 56.9971 104.538 57.1904 105.214 57.282C105.889 57.3736 106.655 57.4041 107.461 57.4041H119.755C120.057 56.9055 120.339 56.4374 120.581 55.9489C121.286 56.2949 122.113 56.6307 123.1 56.9157C124.148 57.221 138.508 57.3838 141.148 57.4143V55.9591L141.612 56.6714V57.4143H163.519C163.61 57.109 163.7 56.8241 163.761 56.5188H163.791C165.141 57.1395 166.522 57.4143 167.943 57.4143H172.608C173.868 57.4143 174.886 57.3838 175.651 57.3532C176.448 57.2922 177.062 57.2311 177.556 57.1395C178.02 57.048 178.443 56.9564 178.785 56.8648C179.128 56.7427 179.491 56.6205 179.864 56.4883C180.63 56.7935 181.436 57.0174 182.262 57.1395C183.088 57.2617 184.076 57.3227 185.245 57.3532C186.383 57.4143 187.855 57.4143 189.578 57.4143H190.868C191.825 57.4143 192.621 57.3532 193.296 57.2006C194.002 57.048 194.616 56.7935 195.11 56.4272C195.513 56.1524 195.906 55.7759 196.249 55.3078C196.803 55.837 197.418 56.3051 198.093 56.6714C199.01 57.1701 199.997 57.5364 201.045 57.7908C202.124 58.0045 203.192 58.1368 204.3 58.0961C205.379 58.0961 206.447 57.974 207.525 57.6891C208.573 57.4448 209.55 57.0683 210.477 56.5697C211.032 54.4632 211.274 52.4686 211.213 50.6063C211.153 48.7441 210.78 47.065 210.135 45.6403ZM145.35 51.5629C145.471 51.3797 145.622 51.1864 145.753 51.0338C147.103 49.3547 148.484 48.0216 149.905 47.0955C151.346 46.1593 152.767 45.7014 154.177 45.7014C155.316 45.7014 156.203 45.9761 156.848 46.5053C157.493 47.0345 157.926 47.7468 158.168 48.6423C158.41 49.5073 158.511 50.4741 158.48 51.5629H145.36H145.35ZM181.919 49.5175C181.708 50.0161 181.426 50.4435 181.033 50.8506C180.629 51.2576 180.146 51.5935 179.561 51.8479C179.007 51.5731 178.513 51.2271 178.12 50.8201C177.717 50.413 177.445 49.9856 177.234 49.487C177.052 49.0188 176.961 48.4897 176.961 47.9402C176.961 47.472 177.052 47.0446 177.264 46.6376C177.475 46.2305 177.788 45.8947 178.151 45.6403C178.554 45.3961 179.007 45.2638 179.561 45.2638C180.116 45.2638 180.609 45.3859 181.002 45.6403C181.405 45.8845 181.678 46.2 181.889 46.6071C182.101 47.0141 182.191 47.4415 182.191 47.9402C182.191 48.4999 182.101 49.029 181.919 49.5277V49.5175ZM203.091 52.1226C202.234 51.9394 201.428 51.6545 200.723 51.3492C200.078 51.0439 199.554 50.7285 199.06 50.4537C199.433 49.8024 199.766 49.2733 200.048 48.8764C200.632 48.0724 201.096 47.5128 201.519 47.2583C201.922 46.9836 202.255 46.8208 202.567 46.8208C203.061 46.8208 203.484 47.0039 203.887 47.3499C204.29 47.6654 204.623 48.1233 204.905 48.683C205.187 49.2427 205.399 49.833 205.58 50.5148C205.761 51.166 205.852 51.8173 205.882 52.4991C204.895 52.4686 203.978 52.3465 203.091 52.1226Z" fill="white"/>
</g>
<defs>
<clipPath id="clip0_479_540">
<rect width="211.223" height="58.0864" fill="white"/>
</clipPath>
</defs>
</svg>
